G04 #@! TF.FileFunction,Soldermask,Bot*
%FSLAX46Y46*%
G04 Gerber Fmt 4.6, Leading zero omitted, Abs format (unit mm)*
G04 Created by KiCad (PCBNEW 4.0.4-stable) date Tue Dec 20 19:00:27 2016*
%MOMM*%
%LPD*%
G01*
G04 APERTURE LIST*
%ADD10C,0.100000*%
%ADD11C,2.286000*%
%ADD12C,1.651000*%
%ADD13R,1.651000X1.651000*%
%ADD14O,1.600000X1.600000*%
%ADD15R,1.524000X1.824000*%
%ADD16O,1.524000X1.824000*%
%ADD17C,1.998980*%
%ADD18O,2.057400X1.752600*%
%ADD19C,1.752600*%
%ADD20C,0.990600*%
%ADD21R,1.400000X1.400000*%
%ADD22C,1.400000*%
%ADD23C,3.200000*%
%ADD24R,2.032000X1.727200*%
%ADD25O,2.032000X1.727200*%
G04 APERTURE END LIST*
D10*
D11*
X49530000Y-41910000D03*
X43180000Y-44450000D03*
X87630000Y-60960000D03*
X81280000Y-63500000D03*
X49530000Y-99060000D03*
X43180000Y-101600000D03*
X49530000Y-60960000D03*
X43180000Y-63500000D03*
D12*
X56515000Y-50825400D03*
D13*
X56515000Y-43205400D03*
D12*
X50800000Y-75565000D03*
D13*
X43180000Y-75565000D03*
D12*
X50800000Y-94615000D03*
D13*
X43180000Y-94615000D03*
D12*
X50800000Y-113665000D03*
D13*
X43180000Y-113665000D03*
D12*
X69850000Y-56515000D03*
D13*
X62230000Y-56515000D03*
D12*
X69850000Y-75565000D03*
D13*
X62230000Y-75565000D03*
D12*
X69850000Y-94615000D03*
D13*
X62230000Y-94615000D03*
D12*
X69850000Y-113665000D03*
D13*
X62230000Y-113665000D03*
D12*
X88900000Y-56515000D03*
D13*
X81280000Y-56515000D03*
D12*
X88900000Y-75565000D03*
D13*
X81280000Y-75565000D03*
D12*
X88900000Y-94615000D03*
D13*
X81280000Y-94615000D03*
D12*
X88900000Y-113665000D03*
D13*
X81280000Y-113665000D03*
D12*
X107950000Y-56515000D03*
D13*
X100330000Y-56515000D03*
D12*
X107950000Y-75565000D03*
D13*
X100330000Y-75565000D03*
D12*
X107950000Y-94615000D03*
D13*
X100330000Y-94615000D03*
D12*
X107950000Y-113665000D03*
D13*
X100330000Y-113665000D03*
D12*
X127000000Y-56515000D03*
D13*
X119380000Y-56515000D03*
D12*
X127000000Y-75565000D03*
D13*
X119380000Y-75565000D03*
D12*
X127000000Y-94615000D03*
D13*
X119380000Y-94615000D03*
D12*
X127000000Y-113665000D03*
D13*
X119380000Y-113665000D03*
D12*
X146050000Y-56515000D03*
D13*
X138430000Y-56515000D03*
D12*
X146050000Y-75565000D03*
D13*
X138430000Y-75565000D03*
D12*
X146050000Y-94615000D03*
D13*
X138430000Y-94615000D03*
D12*
X146050000Y-113665000D03*
D13*
X138430000Y-113665000D03*
D11*
X49530000Y-80010000D03*
X43180000Y-82550000D03*
X68580000Y-41910000D03*
X62230000Y-44450000D03*
X68580000Y-60960000D03*
X62230000Y-63500000D03*
X68580000Y-80010000D03*
X62230000Y-82550000D03*
X68580000Y-99060000D03*
X62230000Y-101600000D03*
X87630000Y-41910000D03*
X81280000Y-44450000D03*
X87630000Y-80010000D03*
X81280000Y-82550000D03*
X87630000Y-99060000D03*
X81280000Y-101600000D03*
X106680000Y-41910000D03*
X100330000Y-44450000D03*
X106680000Y-60960000D03*
X100330000Y-63500000D03*
X106680000Y-80010000D03*
X100330000Y-82550000D03*
X106680000Y-99060000D03*
X100330000Y-101600000D03*
X125730000Y-41910000D03*
X119380000Y-44450000D03*
X125730000Y-60960000D03*
X119380000Y-63500000D03*
X125730000Y-80010000D03*
X119380000Y-82550000D03*
X125730000Y-99060000D03*
X119380000Y-101600000D03*
X144780000Y-41910000D03*
X138430000Y-44450000D03*
X144780000Y-60960000D03*
X138430000Y-63500000D03*
X144780000Y-80010000D03*
X138430000Y-82550000D03*
X144780000Y-99060000D03*
X138430000Y-101600000D03*
D14*
X81915000Y-34925000D03*
X84455000Y-34925000D03*
X86995000Y-34925000D03*
X89535000Y-34925000D03*
X92075000Y-34925000D03*
X94615000Y-34925000D03*
X97155000Y-34925000D03*
X99695000Y-34925000D03*
X102235000Y-34925000D03*
X104775000Y-34925000D03*
X107315000Y-34925000D03*
X109855000Y-34925000D03*
X112395000Y-34925000D03*
X114935000Y-34925000D03*
X114935000Y-27305000D03*
X112395000Y-27305000D03*
X109855000Y-27305000D03*
X107315000Y-27305000D03*
X104775000Y-27305000D03*
X102235000Y-27305000D03*
X99695000Y-27305000D03*
X97155000Y-27305000D03*
X94615000Y-27305000D03*
X92075000Y-27305000D03*
X89535000Y-27305000D03*
X86995000Y-27305000D03*
X84455000Y-27305000D03*
X81915000Y-27305000D03*
D15*
X69215000Y-34925000D03*
D16*
X69215000Y-27305000D03*
X71755000Y-34925000D03*
X71755000Y-27305000D03*
X74295000Y-34925000D03*
X74295000Y-27305000D03*
D17*
X64135000Y-35560000D03*
X64135000Y-25400000D03*
X60960000Y-35560000D03*
X60960000Y-25400000D03*
X57785000Y-35560000D03*
X57785000Y-25400000D03*
D18*
X134188200Y-27025600D03*
D19*
X125933200Y-32029400D03*
X131140200Y-35128200D03*
D18*
X124891800Y-27025600D03*
D19*
X127939800Y-35128200D03*
X133146800Y-32029400D03*
D20*
X129540000Y-27025600D03*
X129540000Y-32029400D03*
D18*
X147091400Y-27025600D03*
D19*
X138836400Y-32029400D03*
X144043400Y-35128200D03*
D18*
X137795000Y-27025600D03*
D19*
X140843000Y-35128200D03*
X146050000Y-32029400D03*
D20*
X142443200Y-27025600D03*
X142443200Y-32029400D03*
D21*
X121285000Y-27305000D03*
D22*
X121285000Y-32305000D03*
D11*
X41910000Y-54000400D03*
X44450000Y-60350400D03*
X59055000Y-99085400D03*
X52705000Y-101625400D03*
X97155000Y-99085400D03*
X90805000Y-101625400D03*
D23*
X56515000Y-56540400D03*
X132715000Y-56540400D03*
X132715000Y-94640400D03*
X56515000Y-94640400D03*
D24*
X150495000Y-26670000D03*
D25*
X150495000Y-29210000D03*
X150495000Y-31750000D03*
X150495000Y-34290000D03*
M02*
