M48
;DRILL file {KiCad 4.0.4-stable} date Tue Dec 20 19:00:29 2016
;FORMAT={-:-/ absolute / inch / decimal}
FMAT,2
INCH,TZ
T1C0.016
T2C0.030
T3C0.031
T4C0.035
T5C0.039
T6C0.039
T7C0.040
T8C0.043
T9C0.059
%
G90
G05
M72
T1
X1.5Y-4.4
X1.525Y-3.65
X1.55Y-2.9
X1.725Y-2.051
T2
X2.725Y-1.075
X2.725Y-1.375
X2.825Y-1.075
X2.825Y-1.375
X2.925Y-1.075
X2.925Y-1.375
T3
X3.225Y-1.075
X3.225Y-1.375
X3.325Y-1.075
X3.325Y-1.375
X3.425Y-1.075
X3.425Y-1.375
X3.525Y-1.075
X3.525Y-1.375
X3.625Y-1.075
X3.625Y-1.375
X3.725Y-1.075
X3.725Y-1.375
X3.825Y-1.075
X3.825Y-1.375
X3.925Y-1.075
X3.925Y-1.375
X4.025Y-1.075
X4.025Y-1.375
X4.125Y-1.075
X4.125Y-1.375
X4.225Y-1.075
X4.225Y-1.375
X4.325Y-1.075
X4.325Y-1.375
X4.425Y-1.075
X4.425Y-1.375
X4.525Y-1.075
X4.525Y-1.375
T4
X4.775Y-1.075
X4.775Y-1.2719
T5
X1.7Y-2.975
X1.7Y-3.725
X1.7Y-4.475
X2.Y-2.975
X2.Y-3.725
X2.Y-4.475
X2.225Y-1.701
X2.225Y-2.001
X2.45Y-2.225
X2.45Y-2.975
X2.45Y-3.725
X2.45Y-4.475
X2.75Y-2.225
X2.75Y-2.975
X2.75Y-3.725
X2.75Y-4.475
X3.2Y-2.225
X3.2Y-2.975
X3.2Y-3.725
X3.2Y-4.475
X3.5Y-2.225
X3.5Y-2.975
X3.5Y-3.725
X3.5Y-4.475
X3.95Y-2.225
X3.95Y-2.975
X3.95Y-3.725
X3.95Y-4.475
X4.25Y-2.225
X4.25Y-2.975
X4.25Y-3.725
X4.25Y-4.475
X4.7Y-2.225
X4.7Y-2.975
X4.7Y-3.725
X4.7Y-4.475
X5.Y-2.225
X5.Y-2.975
X5.Y-3.725
X5.Y-4.475
X5.45Y-2.225
X5.45Y-2.975
X5.45Y-3.725
X5.45Y-4.475
X5.75Y-2.225
X5.75Y-2.975
X5.75Y-3.725
X5.75Y-4.475
T6
X2.275Y-1.
X2.275Y-1.4
X2.4Y-1.
X2.4Y-1.4
X2.525Y-1.
X2.525Y-1.4
T7
X5.925Y-1.05
X5.925Y-1.15
X5.925Y-1.25
X5.925Y-1.35
T8
X4.958Y-1.261
X5.037Y-1.383
X5.163Y-1.383
X5.242Y-1.261
X5.466Y-1.261
X5.545Y-1.383
X5.671Y-1.383
X5.75Y-1.261
T9
X1.65Y-2.126
X1.7Y-1.75
X1.7Y-2.5
X1.7Y-3.25
X1.7Y-4.
X1.75Y-2.376
X1.95Y-1.65
X1.95Y-2.4
X1.95Y-3.15
X1.95Y-3.9
X2.075Y-4.001
X2.325Y-3.901
X2.45Y-1.75
X2.45Y-2.5
X2.45Y-3.25
X2.45Y-4.
X2.7Y-1.65
X2.7Y-2.4
X2.7Y-3.15
X2.7Y-3.9
X3.2Y-1.75
X3.2Y-2.5
X3.2Y-3.25
X3.2Y-4.
X3.45Y-1.65
X3.45Y-2.4
X3.45Y-3.15
X3.45Y-3.9
X3.575Y-4.001
X3.825Y-3.901
X3.95Y-1.75
X3.95Y-2.5
X3.95Y-3.25
X3.95Y-4.
X4.2Y-1.65
X4.2Y-2.4
X4.2Y-3.15
X4.2Y-3.9
X4.7Y-1.75
X4.7Y-2.5
X4.7Y-3.25
X4.7Y-4.
X4.95Y-1.65
X4.95Y-2.4
X4.95Y-3.15
X4.95Y-3.9
X5.45Y-1.75
X5.45Y-2.5
X5.45Y-3.25
X5.45Y-4.
X5.7Y-1.65
X5.7Y-2.4
X5.7Y-3.15
X5.7Y-3.9
T8
X4.923Y-1.064G85X4.911Y-1.064
G05
X5.289Y-1.064G85X5.277Y-1.064
G05
X5.431Y-1.064G85X5.419Y-1.064
G05
X5.797Y-1.064G85X5.785Y-1.064
G05
T0
M30
