G04 #@! TF.FileFunction,Legend,Bot*
%FSLAX46Y46*%
G04 Gerber Fmt 4.6, Leading zero omitted, Abs format (unit mm)*
G04 Created by KiCad (PCBNEW 4.0.4-stable) date Tue Dec 20 19:00:27 2016*
%MOMM*%
%LPD*%
G01*
G04 APERTURE LIST*
%ADD10C,0.100000*%
%ADD11C,0.300000*%
%ADD12C,0.381000*%
%ADD13C,0.304800*%
G04 APERTURE END LIST*
D10*
D11*
X117007859Y-53408971D02*
X117007859Y-51908971D01*
X116365002Y-53408971D02*
X116365002Y-52623257D01*
X116436431Y-52480400D01*
X116579288Y-52408971D01*
X116793573Y-52408971D01*
X116936431Y-52480400D01*
X117007859Y-52551829D01*
X115865002Y-52408971D02*
X115293573Y-52408971D01*
X115650716Y-51908971D02*
X115650716Y-53194686D01*
X115579288Y-53337543D01*
X115436430Y-53408971D01*
X115293573Y-53408971D01*
X115007859Y-52408971D02*
X114436430Y-52408971D01*
X114793573Y-51908971D02*
X114793573Y-53194686D01*
X114722145Y-53337543D01*
X114579287Y-53408971D01*
X114436430Y-53408971D01*
X113936430Y-52408971D02*
X113936430Y-53908971D01*
X113936430Y-52480400D02*
X113793573Y-52408971D01*
X113507859Y-52408971D01*
X113365002Y-52480400D01*
X113293573Y-52551829D01*
X113222144Y-52694686D01*
X113222144Y-53123257D01*
X113293573Y-53266114D01*
X113365002Y-53337543D01*
X113507859Y-53408971D01*
X113793573Y-53408971D01*
X113936430Y-53337543D01*
X112650716Y-53337543D02*
X112507859Y-53408971D01*
X112222144Y-53408971D01*
X112079287Y-53337543D01*
X112007859Y-53194686D01*
X112007859Y-53123257D01*
X112079287Y-52980400D01*
X112222144Y-52908971D01*
X112436430Y-52908971D01*
X112579287Y-52837543D01*
X112650716Y-52694686D01*
X112650716Y-52623257D01*
X112579287Y-52480400D01*
X112436430Y-52408971D01*
X112222144Y-52408971D01*
X112079287Y-52480400D01*
X111365001Y-53266114D02*
X111293573Y-53337543D01*
X111365001Y-53408971D01*
X111436430Y-53337543D01*
X111365001Y-53266114D01*
X111365001Y-53408971D01*
X111365001Y-52480400D02*
X111293573Y-52551829D01*
X111365001Y-52623257D01*
X111436430Y-52551829D01*
X111365001Y-52480400D01*
X111365001Y-52623257D01*
X109579287Y-51837543D02*
X110865001Y-53766114D01*
X108007858Y-51837543D02*
X109293572Y-53766114D01*
X106865000Y-52408971D02*
X106865000Y-53623257D01*
X106936429Y-53766114D01*
X107007857Y-53837543D01*
X107150714Y-53908971D01*
X107365000Y-53908971D01*
X107507857Y-53837543D01*
X106865000Y-53337543D02*
X107007857Y-53408971D01*
X107293571Y-53408971D01*
X107436429Y-53337543D01*
X107507857Y-53266114D01*
X107579286Y-53123257D01*
X107579286Y-52694686D01*
X107507857Y-52551829D01*
X107436429Y-52480400D01*
X107293571Y-52408971D01*
X107007857Y-52408971D01*
X106865000Y-52480400D01*
X106150714Y-53408971D02*
X106150714Y-52408971D01*
X106150714Y-51908971D02*
X106222143Y-51980400D01*
X106150714Y-52051829D01*
X106079286Y-51980400D01*
X106150714Y-51908971D01*
X106150714Y-52051829D01*
X105650714Y-52408971D02*
X105079285Y-52408971D01*
X105436428Y-51908971D02*
X105436428Y-53194686D01*
X105365000Y-53337543D01*
X105222142Y-53408971D01*
X105079285Y-53408971D01*
X104579285Y-53408971D02*
X104579285Y-51908971D01*
X103936428Y-53408971D02*
X103936428Y-52623257D01*
X104007857Y-52480400D01*
X104150714Y-52408971D01*
X104364999Y-52408971D01*
X104507857Y-52480400D01*
X104579285Y-52551829D01*
X102579285Y-52408971D02*
X102579285Y-53408971D01*
X103222142Y-52408971D02*
X103222142Y-53194686D01*
X103150714Y-53337543D01*
X103007856Y-53408971D01*
X102793571Y-53408971D01*
X102650714Y-53337543D01*
X102579285Y-53266114D01*
X101864999Y-53408971D02*
X101864999Y-51908971D01*
X101864999Y-52480400D02*
X101722142Y-52408971D01*
X101436428Y-52408971D01*
X101293571Y-52480400D01*
X101222142Y-52551829D01*
X101150713Y-52694686D01*
X101150713Y-53123257D01*
X101222142Y-53266114D01*
X101293571Y-53337543D01*
X101436428Y-53408971D01*
X101722142Y-53408971D01*
X101864999Y-53337543D01*
X100507856Y-53266114D02*
X100436428Y-53337543D01*
X100507856Y-53408971D01*
X100579285Y-53337543D01*
X100507856Y-53266114D01*
X100507856Y-53408971D01*
X99150713Y-53337543D02*
X99293570Y-53408971D01*
X99579284Y-53408971D01*
X99722142Y-53337543D01*
X99793570Y-53266114D01*
X99864999Y-53123257D01*
X99864999Y-52694686D01*
X99793570Y-52551829D01*
X99722142Y-52480400D01*
X99579284Y-52408971D01*
X99293570Y-52408971D01*
X99150713Y-52480400D01*
X98293570Y-53408971D02*
X98436428Y-53337543D01*
X98507856Y-53266114D01*
X98579285Y-53123257D01*
X98579285Y-52694686D01*
X98507856Y-52551829D01*
X98436428Y-52480400D01*
X98293570Y-52408971D01*
X98079285Y-52408971D01*
X97936428Y-52480400D01*
X97864999Y-52551829D01*
X97793570Y-52694686D01*
X97793570Y-53123257D01*
X97864999Y-53266114D01*
X97936428Y-53337543D01*
X98079285Y-53408971D01*
X98293570Y-53408971D01*
X97150713Y-53408971D02*
X97150713Y-52408971D01*
X97150713Y-52551829D02*
X97079285Y-52480400D01*
X96936427Y-52408971D01*
X96722142Y-52408971D01*
X96579285Y-52480400D01*
X96507856Y-52623257D01*
X96507856Y-53408971D01*
X96507856Y-52623257D02*
X96436427Y-52480400D01*
X96293570Y-52408971D01*
X96079285Y-52408971D01*
X95936427Y-52480400D01*
X95864999Y-52623257D01*
X95864999Y-53408971D01*
X94079285Y-51837543D02*
X95364999Y-53766114D01*
X93579284Y-53408971D02*
X93579284Y-51908971D01*
X92936427Y-53408971D02*
X92936427Y-52623257D01*
X93007856Y-52480400D01*
X93150713Y-52408971D01*
X93364998Y-52408971D01*
X93507856Y-52480400D01*
X93579284Y-52551829D01*
X91579284Y-53408971D02*
X91579284Y-52623257D01*
X91650713Y-52480400D01*
X91793570Y-52408971D01*
X92079284Y-52408971D01*
X92222141Y-52480400D01*
X91579284Y-53337543D02*
X91722141Y-53408971D01*
X92079284Y-53408971D01*
X92222141Y-53337543D01*
X92293570Y-53194686D01*
X92293570Y-53051829D01*
X92222141Y-52908971D01*
X92079284Y-52837543D01*
X91722141Y-52837543D01*
X91579284Y-52766114D01*
X91007855Y-52408971D02*
X90722141Y-53408971D01*
X90436427Y-52694686D01*
X90150712Y-53408971D01*
X89864998Y-52408971D01*
X89507855Y-52408971D02*
X88936426Y-52408971D01*
X89293569Y-51908971D02*
X89293569Y-53194686D01*
X89222141Y-53337543D01*
X89079283Y-53408971D01*
X88936426Y-53408971D01*
X88436426Y-53408971D02*
X88436426Y-51908971D01*
X87793569Y-53408971D02*
X87793569Y-52623257D01*
X87864998Y-52480400D01*
X88007855Y-52408971D01*
X88222140Y-52408971D01*
X88364998Y-52480400D01*
X88436426Y-52551829D01*
X87079283Y-53408971D02*
X87079283Y-52408971D01*
X87079283Y-52551829D02*
X87007855Y-52480400D01*
X86864997Y-52408971D01*
X86650712Y-52408971D01*
X86507855Y-52480400D01*
X86436426Y-52623257D01*
X86436426Y-53408971D01*
X86436426Y-52623257D02*
X86364997Y-52480400D01*
X86222140Y-52408971D01*
X86007855Y-52408971D01*
X85864997Y-52480400D01*
X85793569Y-52623257D01*
X85793569Y-53408971D01*
X84436426Y-53408971D02*
X84436426Y-52623257D01*
X84507855Y-52480400D01*
X84650712Y-52408971D01*
X84936426Y-52408971D01*
X85079283Y-52480400D01*
X84436426Y-53337543D02*
X84579283Y-53408971D01*
X84936426Y-53408971D01*
X85079283Y-53337543D01*
X85150712Y-53194686D01*
X85150712Y-53051829D01*
X85079283Y-52908971D01*
X84936426Y-52837543D01*
X84579283Y-52837543D01*
X84436426Y-52766114D01*
X83722140Y-52408971D02*
X83722140Y-53408971D01*
X83722140Y-52551829D02*
X83650712Y-52480400D01*
X83507854Y-52408971D01*
X83293569Y-52408971D01*
X83150712Y-52480400D01*
X83079283Y-52623257D01*
X83079283Y-53408971D01*
X81293569Y-51837543D02*
X82579283Y-53766114D01*
X80793568Y-52408971D02*
X80793568Y-53408971D01*
X80793568Y-52551829D02*
X80722140Y-52480400D01*
X80579282Y-52408971D01*
X80364997Y-52408971D01*
X80222140Y-52480400D01*
X80150711Y-52623257D01*
X80150711Y-53408971D01*
X79222139Y-53408971D02*
X79364997Y-53337543D01*
X79436425Y-53266114D01*
X79507854Y-53123257D01*
X79507854Y-52694686D01*
X79436425Y-52551829D01*
X79364997Y-52480400D01*
X79222139Y-52408971D01*
X79007854Y-52408971D01*
X78864997Y-52480400D01*
X78793568Y-52551829D01*
X78722139Y-52694686D01*
X78722139Y-53123257D01*
X78793568Y-53266114D01*
X78864997Y-53337543D01*
X79007854Y-53408971D01*
X79222139Y-53408971D01*
X78079282Y-53408971D02*
X78079282Y-52408971D01*
X78079282Y-52694686D02*
X78007854Y-52551829D01*
X77936425Y-52480400D01*
X77793568Y-52408971D01*
X77650711Y-52408971D01*
X77150711Y-53408971D02*
X77150711Y-52408971D01*
X77150711Y-52551829D02*
X77079283Y-52480400D01*
X76936425Y-52408971D01*
X76722140Y-52408971D01*
X76579283Y-52480400D01*
X76507854Y-52623257D01*
X76507854Y-53408971D01*
X76507854Y-52623257D02*
X76436425Y-52480400D01*
X76293568Y-52408971D01*
X76079283Y-52408971D01*
X75936425Y-52480400D01*
X75864997Y-52623257D01*
X75864997Y-53408971D01*
X75150711Y-53408971D02*
X75150711Y-51908971D01*
X75007854Y-52837543D02*
X74579283Y-53408971D01*
X74579283Y-52408971D02*
X75150711Y-52980400D01*
X73364997Y-53337543D02*
X73507854Y-53408971D01*
X73793568Y-53408971D01*
X73936425Y-53337543D01*
X74007854Y-53194686D01*
X74007854Y-52623257D01*
X73936425Y-52480400D01*
X73793568Y-52408971D01*
X73507854Y-52408971D01*
X73364997Y-52480400D01*
X73293568Y-52623257D01*
X73293568Y-52766114D01*
X74007854Y-52908971D01*
X72793568Y-52408971D02*
X72436425Y-53408971D01*
X72079283Y-52408971D02*
X72436425Y-53408971D01*
X72579283Y-53766114D01*
X72650711Y-53837543D01*
X72793568Y-53908971D01*
X117650717Y-72458971D02*
X117650717Y-70958971D01*
X117007860Y-72458971D02*
X117007860Y-71673257D01*
X117079289Y-71530400D01*
X117222146Y-71458971D01*
X117436431Y-71458971D01*
X117579289Y-71530400D01*
X117650717Y-71601829D01*
X116507860Y-71458971D02*
X115936431Y-71458971D01*
X116293574Y-70958971D02*
X116293574Y-72244686D01*
X116222146Y-72387543D01*
X116079288Y-72458971D01*
X115936431Y-72458971D01*
X115650717Y-71458971D02*
X115079288Y-71458971D01*
X115436431Y-70958971D02*
X115436431Y-72244686D01*
X115365003Y-72387543D01*
X115222145Y-72458971D01*
X115079288Y-72458971D01*
X114579288Y-71458971D02*
X114579288Y-72958971D01*
X114579288Y-71530400D02*
X114436431Y-71458971D01*
X114150717Y-71458971D01*
X114007860Y-71530400D01*
X113936431Y-71601829D01*
X113865002Y-71744686D01*
X113865002Y-72173257D01*
X113936431Y-72316114D01*
X114007860Y-72387543D01*
X114150717Y-72458971D01*
X114436431Y-72458971D01*
X114579288Y-72387543D01*
X113222145Y-72316114D02*
X113150717Y-72387543D01*
X113222145Y-72458971D01*
X113293574Y-72387543D01*
X113222145Y-72316114D01*
X113222145Y-72458971D01*
X113222145Y-71530400D02*
X113150717Y-71601829D01*
X113222145Y-71673257D01*
X113293574Y-71601829D01*
X113222145Y-71530400D01*
X113222145Y-71673257D01*
X111436431Y-70887543D02*
X112722145Y-72816114D01*
X109865002Y-70887543D02*
X111150716Y-72816114D01*
X109507858Y-71458971D02*
X109222144Y-72458971D01*
X108936430Y-71744686D01*
X108650715Y-72458971D01*
X108365001Y-71458971D01*
X107936429Y-71458971D02*
X107650715Y-72458971D01*
X107365001Y-71744686D01*
X107079286Y-72458971D01*
X106793572Y-71458971D01*
X106365000Y-71458971D02*
X106079286Y-72458971D01*
X105793572Y-71744686D01*
X105507857Y-72458971D01*
X105222143Y-71458971D01*
X104650714Y-72316114D02*
X104579286Y-72387543D01*
X104650714Y-72458971D01*
X104722143Y-72387543D01*
X104650714Y-72316114D01*
X104650714Y-72458971D01*
X103936428Y-71458971D02*
X103936428Y-72744686D01*
X104007857Y-72887543D01*
X104150714Y-72958971D01*
X104222142Y-72958971D01*
X103936428Y-70958971D02*
X104007857Y-71030400D01*
X103936428Y-71101829D01*
X103865000Y-71030400D01*
X103936428Y-70958971D01*
X103936428Y-71101829D01*
X103007856Y-72458971D02*
X103150714Y-72387543D01*
X103222142Y-72316114D01*
X103293571Y-72173257D01*
X103293571Y-71744686D01*
X103222142Y-71601829D01*
X103150714Y-71530400D01*
X103007856Y-71458971D01*
X102793571Y-71458971D01*
X102650714Y-71530400D01*
X102579285Y-71601829D01*
X102507856Y-71744686D01*
X102507856Y-72173257D01*
X102579285Y-72316114D01*
X102650714Y-72387543D01*
X102793571Y-72458971D01*
X103007856Y-72458971D01*
X101864999Y-72458971D02*
X101864999Y-70958971D01*
X101222142Y-72458971D02*
X101222142Y-71673257D01*
X101293571Y-71530400D01*
X101436428Y-71458971D01*
X101650713Y-71458971D01*
X101793571Y-71530400D01*
X101864999Y-71601829D01*
X100507856Y-71458971D02*
X100507856Y-72458971D01*
X100507856Y-71601829D02*
X100436428Y-71530400D01*
X100293570Y-71458971D01*
X100079285Y-71458971D01*
X99936428Y-71530400D01*
X99864999Y-71673257D01*
X99864999Y-72458971D01*
X99150713Y-72458971D02*
X99150713Y-70958971D01*
X98507856Y-72458971D02*
X98507856Y-71673257D01*
X98579285Y-71530400D01*
X98722142Y-71458971D01*
X98936427Y-71458971D01*
X99079285Y-71530400D01*
X99150713Y-71601829D01*
X97150713Y-72458971D02*
X97150713Y-71673257D01*
X97222142Y-71530400D01*
X97364999Y-71458971D01*
X97650713Y-71458971D01*
X97793570Y-71530400D01*
X97150713Y-72387543D02*
X97293570Y-72458971D01*
X97650713Y-72458971D01*
X97793570Y-72387543D01*
X97864999Y-72244686D01*
X97864999Y-72101829D01*
X97793570Y-71958971D01*
X97650713Y-71887543D01*
X97293570Y-71887543D01*
X97150713Y-71816114D01*
X96579284Y-71458971D02*
X96293570Y-72458971D01*
X96007856Y-71744686D01*
X95722141Y-72458971D01*
X95436427Y-71458971D01*
X95079284Y-71458971D02*
X94507855Y-71458971D01*
X94864998Y-70958971D02*
X94864998Y-72244686D01*
X94793570Y-72387543D01*
X94650712Y-72458971D01*
X94507855Y-72458971D01*
X94007855Y-72458971D02*
X94007855Y-70958971D01*
X93364998Y-72458971D02*
X93364998Y-71673257D01*
X93436427Y-71530400D01*
X93579284Y-71458971D01*
X93793569Y-71458971D01*
X93936427Y-71530400D01*
X94007855Y-71601829D01*
X92436426Y-72458971D02*
X92579284Y-72387543D01*
X92650712Y-72316114D01*
X92722141Y-72173257D01*
X92722141Y-71744686D01*
X92650712Y-71601829D01*
X92579284Y-71530400D01*
X92436426Y-71458971D01*
X92222141Y-71458971D01*
X92079284Y-71530400D01*
X92007855Y-71601829D01*
X91936426Y-71744686D01*
X91936426Y-72173257D01*
X92007855Y-72316114D01*
X92079284Y-72387543D01*
X92222141Y-72458971D01*
X92436426Y-72458971D01*
X91293569Y-72458971D02*
X91293569Y-71458971D01*
X91293569Y-71744686D02*
X91222141Y-71601829D01*
X91150712Y-71530400D01*
X91007855Y-71458971D01*
X90864998Y-71458971D01*
X90364998Y-71458971D02*
X90364998Y-72458971D01*
X90364998Y-71601829D02*
X90293570Y-71530400D01*
X90150712Y-71458971D01*
X89936427Y-71458971D01*
X89793570Y-71530400D01*
X89722141Y-71673257D01*
X89722141Y-72458971D01*
X89007855Y-72316114D02*
X88936427Y-72387543D01*
X89007855Y-72458971D01*
X89079284Y-72387543D01*
X89007855Y-72316114D01*
X89007855Y-72458971D01*
X87650712Y-72387543D02*
X87793569Y-72458971D01*
X88079283Y-72458971D01*
X88222141Y-72387543D01*
X88293569Y-72316114D01*
X88364998Y-72173257D01*
X88364998Y-71744686D01*
X88293569Y-71601829D01*
X88222141Y-71530400D01*
X88079283Y-71458971D01*
X87793569Y-71458971D01*
X87650712Y-71530400D01*
X86793569Y-72458971D02*
X86936427Y-72387543D01*
X87007855Y-72316114D01*
X87079284Y-72173257D01*
X87079284Y-71744686D01*
X87007855Y-71601829D01*
X86936427Y-71530400D01*
X86793569Y-71458971D01*
X86579284Y-71458971D01*
X86436427Y-71530400D01*
X86364998Y-71601829D01*
X86293569Y-71744686D01*
X86293569Y-72173257D01*
X86364998Y-72316114D01*
X86436427Y-72387543D01*
X86579284Y-72458971D01*
X86793569Y-72458971D01*
X85650712Y-72458971D02*
X85650712Y-71458971D01*
X85650712Y-71601829D02*
X85579284Y-71530400D01*
X85436426Y-71458971D01*
X85222141Y-71458971D01*
X85079284Y-71530400D01*
X85007855Y-71673257D01*
X85007855Y-72458971D01*
X85007855Y-71673257D02*
X84936426Y-71530400D01*
X84793569Y-71458971D01*
X84579284Y-71458971D01*
X84436426Y-71530400D01*
X84364998Y-71673257D01*
X84364998Y-72458971D01*
X82579284Y-70887543D02*
X83864998Y-72816114D01*
X82079283Y-72458971D02*
X82079283Y-70958971D01*
X81436426Y-72458971D02*
X81436426Y-71673257D01*
X81507855Y-71530400D01*
X81650712Y-71458971D01*
X81864997Y-71458971D01*
X82007855Y-71530400D01*
X82079283Y-71601829D01*
X80079283Y-72458971D02*
X80079283Y-71673257D01*
X80150712Y-71530400D01*
X80293569Y-71458971D01*
X80579283Y-71458971D01*
X80722140Y-71530400D01*
X80079283Y-72387543D02*
X80222140Y-72458971D01*
X80579283Y-72458971D01*
X80722140Y-72387543D01*
X80793569Y-72244686D01*
X80793569Y-72101829D01*
X80722140Y-71958971D01*
X80579283Y-71887543D01*
X80222140Y-71887543D01*
X80079283Y-71816114D01*
X79507854Y-71458971D02*
X79222140Y-72458971D01*
X78936426Y-71744686D01*
X78650711Y-72458971D01*
X78364997Y-71458971D01*
X78007854Y-71458971D02*
X77436425Y-71458971D01*
X77793568Y-70958971D02*
X77793568Y-72244686D01*
X77722140Y-72387543D01*
X77579282Y-72458971D01*
X77436425Y-72458971D01*
X76936425Y-72458971D02*
X76936425Y-70958971D01*
X76293568Y-72458971D02*
X76293568Y-71673257D01*
X76364997Y-71530400D01*
X76507854Y-71458971D01*
X76722139Y-71458971D01*
X76864997Y-71530400D01*
X76936425Y-71601829D01*
X75579282Y-72458971D02*
X75579282Y-71458971D01*
X75579282Y-71601829D02*
X75507854Y-71530400D01*
X75364996Y-71458971D01*
X75150711Y-71458971D01*
X75007854Y-71530400D01*
X74936425Y-71673257D01*
X74936425Y-72458971D01*
X74936425Y-71673257D02*
X74864996Y-71530400D01*
X74722139Y-71458971D01*
X74507854Y-71458971D01*
X74364996Y-71530400D01*
X74293568Y-71673257D01*
X74293568Y-72458971D01*
X72936425Y-72458971D02*
X72936425Y-71673257D01*
X73007854Y-71530400D01*
X73150711Y-71458971D01*
X73436425Y-71458971D01*
X73579282Y-71530400D01*
X72936425Y-72387543D02*
X73079282Y-72458971D01*
X73436425Y-72458971D01*
X73579282Y-72387543D01*
X73650711Y-72244686D01*
X73650711Y-72101829D01*
X73579282Y-71958971D01*
X73436425Y-71887543D01*
X73079282Y-71887543D01*
X72936425Y-71816114D01*
X72222139Y-71458971D02*
X72222139Y-72458971D01*
X72222139Y-71601829D02*
X72150711Y-71530400D01*
X72007853Y-71458971D01*
X71793568Y-71458971D01*
X71650711Y-71530400D01*
X71579282Y-71673257D01*
X71579282Y-72458971D01*
X116436430Y-91508971D02*
X116436430Y-90008971D01*
X115793573Y-91508971D02*
X115793573Y-90723257D01*
X115865002Y-90580400D01*
X116007859Y-90508971D01*
X116222144Y-90508971D01*
X116365002Y-90580400D01*
X116436430Y-90651829D01*
X115293573Y-90508971D02*
X114722144Y-90508971D01*
X115079287Y-90008971D02*
X115079287Y-91294686D01*
X115007859Y-91437543D01*
X114865001Y-91508971D01*
X114722144Y-91508971D01*
X114436430Y-90508971D02*
X113865001Y-90508971D01*
X114222144Y-90008971D02*
X114222144Y-91294686D01*
X114150716Y-91437543D01*
X114007858Y-91508971D01*
X113865001Y-91508971D01*
X113365001Y-90508971D02*
X113365001Y-92008971D01*
X113365001Y-90580400D02*
X113222144Y-90508971D01*
X112936430Y-90508971D01*
X112793573Y-90580400D01*
X112722144Y-90651829D01*
X112650715Y-90794686D01*
X112650715Y-91223257D01*
X112722144Y-91366114D01*
X112793573Y-91437543D01*
X112936430Y-91508971D01*
X113222144Y-91508971D01*
X113365001Y-91437543D01*
X112007858Y-91366114D02*
X111936430Y-91437543D01*
X112007858Y-91508971D01*
X112079287Y-91437543D01*
X112007858Y-91366114D01*
X112007858Y-91508971D01*
X112007858Y-90580400D02*
X111936430Y-90651829D01*
X112007858Y-90723257D01*
X112079287Y-90651829D01*
X112007858Y-90580400D01*
X112007858Y-90723257D01*
X110222144Y-89937543D02*
X111507858Y-91866114D01*
X108650715Y-89937543D02*
X109936429Y-91866114D01*
X108293571Y-90508971D02*
X108007857Y-91508971D01*
X107722143Y-90794686D01*
X107436428Y-91508971D01*
X107150714Y-90508971D01*
X106722142Y-90508971D02*
X106436428Y-91508971D01*
X106150714Y-90794686D01*
X105864999Y-91508971D01*
X105579285Y-90508971D01*
X105150713Y-90508971D02*
X104864999Y-91508971D01*
X104579285Y-90794686D01*
X104293570Y-91508971D01*
X104007856Y-90508971D01*
X103436427Y-91366114D02*
X103364999Y-91437543D01*
X103436427Y-91508971D01*
X103507856Y-91437543D01*
X103436427Y-91366114D01*
X103436427Y-91508971D01*
X102079284Y-91437543D02*
X102222141Y-91508971D01*
X102507855Y-91508971D01*
X102650713Y-91437543D01*
X102722141Y-91366114D01*
X102793570Y-91223257D01*
X102793570Y-90794686D01*
X102722141Y-90651829D01*
X102650713Y-90580400D01*
X102507855Y-90508971D01*
X102222141Y-90508971D01*
X102079284Y-90580400D01*
X101436427Y-91508971D02*
X101436427Y-90508971D01*
X101436427Y-90794686D02*
X101364999Y-90651829D01*
X101293570Y-90580400D01*
X101150713Y-90508971D01*
X101007856Y-90508971D01*
X99936428Y-91437543D02*
X100079285Y-91508971D01*
X100364999Y-91508971D01*
X100507856Y-91437543D01*
X100579285Y-91294686D01*
X100579285Y-90723257D01*
X100507856Y-90580400D01*
X100364999Y-90508971D01*
X100079285Y-90508971D01*
X99936428Y-90580400D01*
X99864999Y-90723257D01*
X99864999Y-90866114D01*
X100579285Y-91008971D01*
X98650714Y-91437543D02*
X98793571Y-91508971D01*
X99079285Y-91508971D01*
X99222142Y-91437543D01*
X99293571Y-91294686D01*
X99293571Y-90723257D01*
X99222142Y-90580400D01*
X99079285Y-90508971D01*
X98793571Y-90508971D01*
X98650714Y-90580400D01*
X98579285Y-90723257D01*
X98579285Y-90866114D01*
X99293571Y-91008971D01*
X97936428Y-90508971D02*
X97936428Y-92008971D01*
X97936428Y-90580400D02*
X97793571Y-90508971D01*
X97507857Y-90508971D01*
X97365000Y-90580400D01*
X97293571Y-90651829D01*
X97222142Y-90794686D01*
X97222142Y-91223257D01*
X97293571Y-91366114D01*
X97365000Y-91437543D01*
X97507857Y-91508971D01*
X97793571Y-91508971D01*
X97936428Y-91437543D01*
X96722142Y-90508971D02*
X96364999Y-91508971D01*
X96007857Y-90508971D02*
X96364999Y-91508971D01*
X96507857Y-91866114D01*
X96579285Y-91937543D01*
X96722142Y-92008971D01*
X95579285Y-90508971D02*
X95293571Y-91508971D01*
X95007857Y-90794686D01*
X94722142Y-91508971D01*
X94436428Y-90508971D01*
X93864999Y-91508971D02*
X93864999Y-90508971D01*
X93864999Y-90008971D02*
X93936428Y-90080400D01*
X93864999Y-90151829D01*
X93793571Y-90080400D01*
X93864999Y-90008971D01*
X93864999Y-90151829D01*
X93293570Y-90508971D02*
X92507856Y-90508971D01*
X93293570Y-91508971D01*
X92507856Y-91508971D01*
X91293570Y-91508971D02*
X91293570Y-90723257D01*
X91364999Y-90580400D01*
X91507856Y-90508971D01*
X91793570Y-90508971D01*
X91936427Y-90580400D01*
X91293570Y-91437543D02*
X91436427Y-91508971D01*
X91793570Y-91508971D01*
X91936427Y-91437543D01*
X92007856Y-91294686D01*
X92007856Y-91151829D01*
X91936427Y-91008971D01*
X91793570Y-90937543D01*
X91436427Y-90937543D01*
X91293570Y-90866114D01*
X90579284Y-91508971D02*
X90579284Y-90508971D01*
X90579284Y-90794686D02*
X90507856Y-90651829D01*
X90436427Y-90580400D01*
X90293570Y-90508971D01*
X90150713Y-90508971D01*
X89007856Y-91508971D02*
X89007856Y-90008971D01*
X89007856Y-91437543D02*
X89150713Y-91508971D01*
X89436427Y-91508971D01*
X89579285Y-91437543D01*
X89650713Y-91366114D01*
X89722142Y-91223257D01*
X89722142Y-90794686D01*
X89650713Y-90651829D01*
X89579285Y-90580400D01*
X89436427Y-90508971D01*
X89150713Y-90508971D01*
X89007856Y-90580400D01*
X88293570Y-91366114D02*
X88222142Y-91437543D01*
X88293570Y-91508971D01*
X88364999Y-91437543D01*
X88293570Y-91366114D01*
X88293570Y-91508971D01*
X86936427Y-91437543D02*
X87079284Y-91508971D01*
X87364998Y-91508971D01*
X87507856Y-91437543D01*
X87579284Y-91366114D01*
X87650713Y-91223257D01*
X87650713Y-90794686D01*
X87579284Y-90651829D01*
X87507856Y-90580400D01*
X87364998Y-90508971D01*
X87079284Y-90508971D01*
X86936427Y-90580400D01*
X86079284Y-91508971D02*
X86222142Y-91437543D01*
X86293570Y-91366114D01*
X86364999Y-91223257D01*
X86364999Y-90794686D01*
X86293570Y-90651829D01*
X86222142Y-90580400D01*
X86079284Y-90508971D01*
X85864999Y-90508971D01*
X85722142Y-90580400D01*
X85650713Y-90651829D01*
X85579284Y-90794686D01*
X85579284Y-91223257D01*
X85650713Y-91366114D01*
X85722142Y-91437543D01*
X85864999Y-91508971D01*
X86079284Y-91508971D01*
X84936427Y-91508971D02*
X84936427Y-90508971D01*
X84936427Y-90651829D02*
X84864999Y-90580400D01*
X84722141Y-90508971D01*
X84507856Y-90508971D01*
X84364999Y-90580400D01*
X84293570Y-90723257D01*
X84293570Y-91508971D01*
X84293570Y-90723257D02*
X84222141Y-90580400D01*
X84079284Y-90508971D01*
X83864999Y-90508971D01*
X83722141Y-90580400D01*
X83650713Y-90723257D01*
X83650713Y-91508971D01*
X81864999Y-89937543D02*
X83150713Y-91866114D01*
X81364998Y-90508971D02*
X81364998Y-91508971D01*
X81364998Y-90651829D02*
X81293570Y-90580400D01*
X81150712Y-90508971D01*
X80936427Y-90508971D01*
X80793570Y-90580400D01*
X80722141Y-90723257D01*
X80722141Y-91508971D01*
X79793569Y-91508971D02*
X79936427Y-91437543D01*
X80007855Y-91366114D01*
X80079284Y-91223257D01*
X80079284Y-90794686D01*
X80007855Y-90651829D01*
X79936427Y-90580400D01*
X79793569Y-90508971D01*
X79579284Y-90508971D01*
X79436427Y-90580400D01*
X79364998Y-90651829D01*
X79293569Y-90794686D01*
X79293569Y-91223257D01*
X79364998Y-91366114D01*
X79436427Y-91437543D01*
X79579284Y-91508971D01*
X79793569Y-91508971D01*
X78650712Y-91508971D02*
X78650712Y-90508971D01*
X78650712Y-90794686D02*
X78579284Y-90651829D01*
X78507855Y-90580400D01*
X78364998Y-90508971D01*
X78222141Y-90508971D01*
X77722141Y-91508971D02*
X77722141Y-90508971D01*
X77722141Y-90651829D02*
X77650713Y-90580400D01*
X77507855Y-90508971D01*
X77293570Y-90508971D01*
X77150713Y-90580400D01*
X77079284Y-90723257D01*
X77079284Y-91508971D01*
X77079284Y-90723257D02*
X77007855Y-90580400D01*
X76864998Y-90508971D01*
X76650713Y-90508971D01*
X76507855Y-90580400D01*
X76436427Y-90723257D01*
X76436427Y-91508971D01*
X75722141Y-91508971D02*
X75722141Y-90008971D01*
X75579284Y-90937543D02*
X75150713Y-91508971D01*
X75150713Y-90508971D02*
X75722141Y-91080400D01*
X73936427Y-91437543D02*
X74079284Y-91508971D01*
X74364998Y-91508971D01*
X74507855Y-91437543D01*
X74579284Y-91294686D01*
X74579284Y-90723257D01*
X74507855Y-90580400D01*
X74364998Y-90508971D01*
X74079284Y-90508971D01*
X73936427Y-90580400D01*
X73864998Y-90723257D01*
X73864998Y-90866114D01*
X74579284Y-91008971D01*
X73364998Y-90508971D02*
X73007855Y-91508971D01*
X72650713Y-90508971D02*
X73007855Y-91508971D01*
X73150713Y-91866114D01*
X73222141Y-91937543D01*
X73364998Y-92008971D01*
X120007858Y-109058971D02*
X119150715Y-109058971D01*
X119579286Y-110558971D02*
X119579286Y-109058971D01*
X118650715Y-110558971D02*
X118650715Y-109058971D01*
X118007858Y-110558971D02*
X118007858Y-109773257D01*
X118079287Y-109630400D01*
X118222144Y-109558971D01*
X118436429Y-109558971D01*
X118579287Y-109630400D01*
X118650715Y-109701829D01*
X116722144Y-110487543D02*
X116865001Y-110558971D01*
X117150715Y-110558971D01*
X117293572Y-110487543D01*
X117365001Y-110344686D01*
X117365001Y-109773257D01*
X117293572Y-109630400D01*
X117150715Y-109558971D01*
X116865001Y-109558971D01*
X116722144Y-109630400D01*
X116650715Y-109773257D01*
X116650715Y-109916114D01*
X117365001Y-110058971D01*
X116007858Y-110558971D02*
X116007858Y-109558971D01*
X116007858Y-109844686D02*
X115936430Y-109701829D01*
X115865001Y-109630400D01*
X115722144Y-109558971D01*
X115579287Y-109558971D01*
X114507859Y-110487543D02*
X114650716Y-110558971D01*
X114936430Y-110558971D01*
X115079287Y-110487543D01*
X115150716Y-110344686D01*
X115150716Y-109773257D01*
X115079287Y-109630400D01*
X114936430Y-109558971D01*
X114650716Y-109558971D01*
X114507859Y-109630400D01*
X114436430Y-109773257D01*
X114436430Y-109916114D01*
X115150716Y-110058971D01*
X113722145Y-109058971D02*
X113865002Y-109344686D01*
X113150716Y-110487543D02*
X113007859Y-110558971D01*
X112722144Y-110558971D01*
X112579287Y-110487543D01*
X112507859Y-110344686D01*
X112507859Y-110273257D01*
X112579287Y-110130400D01*
X112722144Y-110058971D01*
X112936430Y-110058971D01*
X113079287Y-109987543D01*
X113150716Y-109844686D01*
X113150716Y-109773257D01*
X113079287Y-109630400D01*
X112936430Y-109558971D01*
X112722144Y-109558971D01*
X112579287Y-109630400D01*
X110722144Y-109558971D02*
X110722144Y-110558971D01*
X110722144Y-109701829D02*
X110650716Y-109630400D01*
X110507858Y-109558971D01*
X110293573Y-109558971D01*
X110150716Y-109630400D01*
X110079287Y-109773257D01*
X110079287Y-110558971D01*
X109150715Y-110558971D02*
X109293573Y-110487543D01*
X109365001Y-110416114D01*
X109436430Y-110273257D01*
X109436430Y-109844686D01*
X109365001Y-109701829D01*
X109293573Y-109630400D01*
X109150715Y-109558971D01*
X108936430Y-109558971D01*
X108793573Y-109630400D01*
X108722144Y-109701829D01*
X108650715Y-109844686D01*
X108650715Y-110273257D01*
X108722144Y-110416114D01*
X108793573Y-110487543D01*
X108936430Y-110558971D01*
X109150715Y-110558971D01*
X106936430Y-110487543D02*
X106793573Y-110558971D01*
X106507858Y-110558971D01*
X106365001Y-110487543D01*
X106293573Y-110344686D01*
X106293573Y-110273257D01*
X106365001Y-110130400D01*
X106507858Y-110058971D01*
X106722144Y-110058971D01*
X106865001Y-109987543D01*
X106936430Y-109844686D01*
X106936430Y-109773257D01*
X106865001Y-109630400D01*
X106722144Y-109558971D01*
X106507858Y-109558971D01*
X106365001Y-109630400D01*
X105007858Y-109558971D02*
X105007858Y-110558971D01*
X105650715Y-109558971D02*
X105650715Y-110344686D01*
X105579287Y-110487543D01*
X105436429Y-110558971D01*
X105222144Y-110558971D01*
X105079287Y-110487543D01*
X105007858Y-110416114D01*
X104293572Y-109558971D02*
X104293572Y-110558971D01*
X104293572Y-109701829D02*
X104222144Y-109630400D01*
X104079286Y-109558971D01*
X103865001Y-109558971D01*
X103722144Y-109630400D01*
X103650715Y-109773257D01*
X103650715Y-110558971D01*
X101793572Y-110558971D02*
X101793572Y-109558971D01*
X101793572Y-109058971D02*
X101865001Y-109130400D01*
X101793572Y-109201829D01*
X101722144Y-109130400D01*
X101793572Y-109058971D01*
X101793572Y-109201829D01*
X101079286Y-109558971D02*
X101079286Y-110558971D01*
X101079286Y-109701829D02*
X101007858Y-109630400D01*
X100865000Y-109558971D01*
X100650715Y-109558971D01*
X100507858Y-109630400D01*
X100436429Y-109773257D01*
X100436429Y-110558971D01*
X98793572Y-109558971D02*
X98222143Y-109558971D01*
X98579286Y-109058971D02*
X98579286Y-110344686D01*
X98507858Y-110487543D01*
X98365000Y-110558971D01*
X98222143Y-110558971D01*
X97722143Y-110558971D02*
X97722143Y-109058971D01*
X97079286Y-110558971D02*
X97079286Y-109773257D01*
X97150715Y-109630400D01*
X97293572Y-109558971D01*
X97507857Y-109558971D01*
X97650715Y-109630400D01*
X97722143Y-109701829D01*
X95793572Y-110487543D02*
X95936429Y-110558971D01*
X96222143Y-110558971D01*
X96365000Y-110487543D01*
X96436429Y-110344686D01*
X96436429Y-109773257D01*
X96365000Y-109630400D01*
X96222143Y-109558971D01*
X95936429Y-109558971D01*
X95793572Y-109630400D01*
X95722143Y-109773257D01*
X95722143Y-109916114D01*
X96436429Y-110058971D01*
X94007858Y-110487543D02*
X93865001Y-110558971D01*
X93579286Y-110558971D01*
X93436429Y-110487543D01*
X93365001Y-110344686D01*
X93365001Y-110273257D01*
X93436429Y-110130400D01*
X93579286Y-110058971D01*
X93793572Y-110058971D01*
X93936429Y-109987543D01*
X94007858Y-109844686D01*
X94007858Y-109773257D01*
X93936429Y-109630400D01*
X93793572Y-109558971D01*
X93579286Y-109558971D01*
X93436429Y-109630400D01*
X92722143Y-110558971D02*
X92722143Y-109058971D01*
X92079286Y-110558971D02*
X92079286Y-109773257D01*
X92150715Y-109630400D01*
X92293572Y-109558971D01*
X92507857Y-109558971D01*
X92650715Y-109630400D01*
X92722143Y-109701829D01*
X90722143Y-110558971D02*
X90722143Y-109773257D01*
X90793572Y-109630400D01*
X90936429Y-109558971D01*
X91222143Y-109558971D01*
X91365000Y-109630400D01*
X90722143Y-110487543D02*
X90865000Y-110558971D01*
X91222143Y-110558971D01*
X91365000Y-110487543D01*
X91436429Y-110344686D01*
X91436429Y-110201829D01*
X91365000Y-110058971D01*
X91222143Y-109987543D01*
X90865000Y-109987543D01*
X90722143Y-109916114D01*
X89365000Y-110558971D02*
X89365000Y-109058971D01*
X89365000Y-110487543D02*
X89507857Y-110558971D01*
X89793571Y-110558971D01*
X89936429Y-110487543D01*
X90007857Y-110416114D01*
X90079286Y-110273257D01*
X90079286Y-109844686D01*
X90007857Y-109701829D01*
X89936429Y-109630400D01*
X89793571Y-109558971D01*
X89507857Y-109558971D01*
X89365000Y-109630400D01*
X88436428Y-110558971D02*
X88579286Y-110487543D01*
X88650714Y-110416114D01*
X88722143Y-110273257D01*
X88722143Y-109844686D01*
X88650714Y-109701829D01*
X88579286Y-109630400D01*
X88436428Y-109558971D01*
X88222143Y-109558971D01*
X88079286Y-109630400D01*
X88007857Y-109701829D01*
X87936428Y-109844686D01*
X87936428Y-110273257D01*
X88007857Y-110416114D01*
X88079286Y-110487543D01*
X88222143Y-110558971D01*
X88436428Y-110558971D01*
X87436428Y-109558971D02*
X87150714Y-110558971D01*
X86865000Y-109844686D01*
X86579285Y-110558971D01*
X86293571Y-109558971D01*
X84364999Y-110558971D02*
X84507857Y-110487543D01*
X84579285Y-110416114D01*
X84650714Y-110273257D01*
X84650714Y-109844686D01*
X84579285Y-109701829D01*
X84507857Y-109630400D01*
X84364999Y-109558971D01*
X84150714Y-109558971D01*
X84007857Y-109630400D01*
X83936428Y-109701829D01*
X83864999Y-109844686D01*
X83864999Y-110273257D01*
X83936428Y-110416114D01*
X84007857Y-110487543D01*
X84150714Y-110558971D01*
X84364999Y-110558971D01*
X83436428Y-109558971D02*
X82864999Y-109558971D01*
X83222142Y-110558971D02*
X83222142Y-109273257D01*
X83150714Y-109130400D01*
X83007856Y-109058971D01*
X82864999Y-109058971D01*
X81436428Y-109558971D02*
X80864999Y-109558971D01*
X81222142Y-109058971D02*
X81222142Y-110344686D01*
X81150714Y-110487543D01*
X81007856Y-110558971D01*
X80864999Y-110558971D01*
X80364999Y-110558971D02*
X80364999Y-109058971D01*
X79722142Y-110558971D02*
X79722142Y-109773257D01*
X79793571Y-109630400D01*
X79936428Y-109558971D01*
X80150713Y-109558971D01*
X80293571Y-109630400D01*
X80364999Y-109701829D01*
X78436428Y-110487543D02*
X78579285Y-110558971D01*
X78864999Y-110558971D01*
X79007856Y-110487543D01*
X79079285Y-110344686D01*
X79079285Y-109773257D01*
X79007856Y-109630400D01*
X78864999Y-109558971D01*
X78579285Y-109558971D01*
X78436428Y-109630400D01*
X78364999Y-109773257D01*
X78364999Y-109916114D01*
X79079285Y-110058971D01*
X76722142Y-109558971D02*
X76436428Y-110558971D01*
X76150714Y-109844686D01*
X75864999Y-110558971D01*
X75579285Y-109558971D01*
X75007856Y-110558971D02*
X75007856Y-109558971D01*
X75007856Y-109058971D02*
X75079285Y-109130400D01*
X75007856Y-109201829D01*
X74936428Y-109130400D01*
X75007856Y-109058971D01*
X75007856Y-109201829D01*
X74436427Y-109558971D02*
X73650713Y-109558971D01*
X74436427Y-110558971D01*
X73650713Y-110558971D01*
X72436427Y-110558971D02*
X72436427Y-109773257D01*
X72507856Y-109630400D01*
X72650713Y-109558971D01*
X72936427Y-109558971D01*
X73079284Y-109630400D01*
X72436427Y-110487543D02*
X72579284Y-110558971D01*
X72936427Y-110558971D01*
X73079284Y-110487543D01*
X73150713Y-110344686D01*
X73150713Y-110201829D01*
X73079284Y-110058971D01*
X72936427Y-109987543D01*
X72579284Y-109987543D01*
X72436427Y-109916114D01*
X71722141Y-110558971D02*
X71722141Y-109558971D01*
X71722141Y-109844686D02*
X71650713Y-109701829D01*
X71579284Y-109630400D01*
X71436427Y-109558971D01*
X71293570Y-109558971D01*
X70150713Y-110558971D02*
X70150713Y-109058971D01*
X70150713Y-110487543D02*
X70293570Y-110558971D01*
X70579284Y-110558971D01*
X70722142Y-110487543D01*
X70793570Y-110416114D01*
X70864999Y-110273257D01*
X70864999Y-109844686D01*
X70793570Y-109701829D01*
X70722142Y-109630400D01*
X70579284Y-109558971D01*
X70293570Y-109558971D01*
X70150713Y-109630400D01*
X69436427Y-110416114D02*
X69364999Y-110487543D01*
X69436427Y-110558971D01*
X69507856Y-110487543D01*
X69436427Y-110416114D01*
X69436427Y-110558971D01*
D12*
X134340600Y-24130000D02*
X134340600Y-36195000D01*
X134340600Y-36195000D02*
X124739400Y-36195000D01*
X124739400Y-36195000D02*
X124739400Y-24130000D01*
X147243800Y-24130000D02*
X147243800Y-36195000D01*
X147243800Y-36195000D02*
X137642600Y-36195000D01*
X137642600Y-36195000D02*
X137642600Y-24130000D01*
D13*
X133773333Y-29010429D02*
X132672666Y-29010429D01*
X133265333Y-29591000D01*
X133011333Y-29591000D01*
X132842000Y-29663571D01*
X132757333Y-29736143D01*
X132672666Y-29881286D01*
X132672666Y-30244143D01*
X132757333Y-30389286D01*
X132842000Y-30461857D01*
X133011333Y-30534429D01*
X133519333Y-30534429D01*
X133688666Y-30461857D01*
X133773333Y-30389286D01*
X131910667Y-30389286D02*
X131826000Y-30461857D01*
X131910667Y-30534429D01*
X131995333Y-30461857D01*
X131910667Y-30389286D01*
X131910667Y-30534429D01*
X130217333Y-29010429D02*
X131064000Y-29010429D01*
X131148666Y-29736143D01*
X131064000Y-29663571D01*
X130894666Y-29591000D01*
X130471333Y-29591000D01*
X130302000Y-29663571D01*
X130217333Y-29736143D01*
X130132666Y-29881286D01*
X130132666Y-30244143D01*
X130217333Y-30389286D01*
X130302000Y-30461857D01*
X130471333Y-30534429D01*
X130894666Y-30534429D01*
X131064000Y-30461857D01*
X131148666Y-30389286D01*
X129370667Y-30534429D02*
X129370667Y-29518429D01*
X129370667Y-29663571D02*
X129286000Y-29591000D01*
X129116667Y-29518429D01*
X128862667Y-29518429D01*
X128693333Y-29591000D01*
X128608667Y-29736143D01*
X128608667Y-30534429D01*
X128608667Y-29736143D02*
X128524000Y-29591000D01*
X128354667Y-29518429D01*
X128100667Y-29518429D01*
X127931333Y-29591000D01*
X127846667Y-29736143D01*
X127846667Y-30534429D01*
X127000000Y-30534429D02*
X127000000Y-29518429D01*
X127000000Y-29663571D02*
X126915333Y-29591000D01*
X126746000Y-29518429D01*
X126492000Y-29518429D01*
X126322666Y-29591000D01*
X126238000Y-29736143D01*
X126238000Y-30534429D01*
X126238000Y-29736143D02*
X126153333Y-29591000D01*
X125984000Y-29518429D01*
X125730000Y-29518429D01*
X125560666Y-29591000D01*
X125476000Y-29736143D01*
X125476000Y-30534429D01*
X146676533Y-29010429D02*
X145575866Y-29010429D01*
X146168533Y-29591000D01*
X145914533Y-29591000D01*
X145745200Y-29663571D01*
X145660533Y-29736143D01*
X145575866Y-29881286D01*
X145575866Y-30244143D01*
X145660533Y-30389286D01*
X145745200Y-30461857D01*
X145914533Y-30534429D01*
X146422533Y-30534429D01*
X146591866Y-30461857D01*
X146676533Y-30389286D01*
X144813867Y-30389286D02*
X144729200Y-30461857D01*
X144813867Y-30534429D01*
X144898533Y-30461857D01*
X144813867Y-30389286D01*
X144813867Y-30534429D01*
X143120533Y-29010429D02*
X143967200Y-29010429D01*
X144051866Y-29736143D01*
X143967200Y-29663571D01*
X143797866Y-29591000D01*
X143374533Y-29591000D01*
X143205200Y-29663571D01*
X143120533Y-29736143D01*
X143035866Y-29881286D01*
X143035866Y-30244143D01*
X143120533Y-30389286D01*
X143205200Y-30461857D01*
X143374533Y-30534429D01*
X143797866Y-30534429D01*
X143967200Y-30461857D01*
X144051866Y-30389286D01*
X142273867Y-30534429D02*
X142273867Y-29518429D01*
X142273867Y-29663571D02*
X142189200Y-29591000D01*
X142019867Y-29518429D01*
X141765867Y-29518429D01*
X141596533Y-29591000D01*
X141511867Y-29736143D01*
X141511867Y-30534429D01*
X141511867Y-29736143D02*
X141427200Y-29591000D01*
X141257867Y-29518429D01*
X141003867Y-29518429D01*
X140834533Y-29591000D01*
X140749867Y-29736143D01*
X140749867Y-30534429D01*
X139903200Y-30534429D02*
X139903200Y-29518429D01*
X139903200Y-29663571D02*
X139818533Y-29591000D01*
X139649200Y-29518429D01*
X139395200Y-29518429D01*
X139225866Y-29591000D01*
X139141200Y-29736143D01*
X139141200Y-30534429D01*
X139141200Y-29736143D02*
X139056533Y-29591000D01*
X138887200Y-29518429D01*
X138633200Y-29518429D01*
X138463866Y-29591000D01*
X138379200Y-29736143D01*
X138379200Y-30534429D01*
M02*
