M48
;DRILL file {KiCad 4.0.4-stable} date Tue Dec 20 19:00:29 2016
;FORMAT={-:-/ absolute / inch / decimal}
FMAT,2
INCH,TZ
T1C0.039
T2C0.067
T3C0.126
T4C0.157
%
G90
G05
M72
T1
X5.1Y-1.064
X5.1Y-1.261
X5.608Y-1.064
X5.608Y-1.261
T2
X1.65Y-1.85
X1.65Y-2.6
X1.65Y-3.35
X1.65Y-4.1
X1.85Y-2.026
X1.85Y-2.426
X2.025Y-4.101
X2.05Y-1.85
X2.05Y-2.6
X2.05Y-3.35
X2.05Y-4.1
X2.4Y-1.85
X2.4Y-2.6
X2.4Y-3.35
X2.4Y-4.1
X2.425Y-4.101
X2.8Y-1.85
X2.8Y-2.6
X2.8Y-3.35
X2.8Y-4.1
X3.15Y-1.85
X3.15Y-2.6
X3.15Y-3.35
X3.15Y-4.1
X3.525Y-4.101
X3.55Y-1.85
X3.55Y-2.6
X3.55Y-3.35
X3.55Y-4.1
X3.9Y-1.85
X3.9Y-2.6
X3.9Y-3.35
X3.9Y-4.1
X3.925Y-4.101
X4.3Y-1.85
X4.3Y-2.6
X4.3Y-3.35
X4.3Y-4.1
X4.65Y-1.85
X4.65Y-2.6
X4.65Y-3.35
X4.65Y-4.1
X5.05Y-1.85
X5.05Y-2.6
X5.05Y-3.35
X5.05Y-4.1
X5.4Y-1.85
X5.4Y-2.6
X5.4Y-3.35
X5.4Y-4.1
X5.8Y-1.85
X5.8Y-2.6
X5.8Y-3.35
X5.8Y-4.1
T3
X2.225Y-2.226
X2.225Y-3.726
X5.225Y-2.226
X5.225Y-3.726
T4
X1.85Y-1.85
X1.85Y-2.226
X1.85Y-2.6
X1.85Y-3.35
X1.85Y-4.1
X2.225Y-4.101
X2.6Y-1.85
X2.6Y-2.6
X2.6Y-3.35
X2.6Y-4.1
X3.35Y-1.85
X3.35Y-2.6
X3.35Y-3.35
X3.35Y-4.1
X3.725Y-4.101
X4.1Y-1.85
X4.1Y-2.6
X4.1Y-3.35
X4.1Y-4.1
X4.85Y-1.85
X4.85Y-2.6
X4.85Y-3.35
X4.85Y-4.1
X5.6Y-1.85
X5.6Y-2.6
X5.6Y-3.35
X5.6Y-4.1
T0
M30
